<?xml version="1.0" encoding="UTF-8"?>
<svg xmlns="http://www.w3.org/2000/svg" width="64" height="64" viewBox="0 0 64 64" aria-label="MacChanger symbolic icon">
  <path fill="#000000" d="M32 3c8 6 16 6 24 8v21c0 16-10.5 25.5-24 29C18.5 57.5 8 48 8 32V11c8-2 16-2 24-8z"/>
  <path fill="#ffffff" d="M32 8c6.6 4.6 13.2 4.9 19 6.2V32c0 12.3-7.6 19.8-19 23.1C20.6 51.8 13 44.3 13 32V14.2C18.8 12.9 25.4 12.6 32 8z"/>
  <path fill="#000000" d="M20 32h24c2.2 0 4 1.8 4 4v12c0 2.2-1.8 4-4 4H20c-2.2 0-4-1.8-4-4V36c0-2.2 1.8-4 4-4z"/>
  <path fill="#ffffff" d="M22 38h2v8h-2zm4 0h2v8h-2zm4 0h2v8h-2zm4 0h2v8h-2zm4 0h2v8h-2zm4 0h2v8h-2z"/>
</svg>
